<svg xmlns="http://www.w3.org/2000/svg" width="32.2" height="32" viewBox="0 0 32.2 32" class="">
                    <g id="Group_98669" data-name="Group 98669" transform="translate(-293 -46)">
                      <path id="Path_101712" data-name="Path 101712" d="M55.1,12.1l2.109-.1a1.053,1.053,0,0,0,.734-.993V8.231H35.2a.837.837,0,0,1-.825-.794.858.858,0,0,1,.825-.893h4.219L42.35,5.055H33.912A1.062,1.062,0,0,0,32.9,6.147V27.193a1.062,1.062,0,0,0,1.009,1.092H56.933a1.062,1.062,0,0,0,1.009-1.092V22.329a1.062,1.062,0,0,0-1.009-1.092H53.815a2.6,2.6,0,0,1-2.476-2.78V14.784c0-2.482,1.926-2.681,3.76-2.681ZM42.992,6.544H53.081l-1.926-4.17-8.163,4.17Zm11.831,0h3.118v-.4a1.062,1.062,0,0,0-1.009-1.092H54.089l.734,1.489ZM53.356,3.367h3.577a2.665,2.665,0,0,1,2.476,2.78v4.865a2.294,2.294,0,0,1-.183,1.092h.55a2.648,2.648,0,0,1,2.568,2.681v3.673a2.739,2.739,0,0,1-2.568,2.78h-.55a2.1,2.1,0,0,1,.183,1.092v4.865a2.574,2.574,0,0,1-2.476,2.681H33.912a2.648,2.648,0,0,1-2.568-2.681V6.147a2.739,2.739,0,0,1,2.568-2.78H45.56L51.246.488a.747.747,0,0,1,1.009.4l1.1,2.482Zm6.42,10.424H53.814a.9.9,0,0,0-.917.993v3.673a.992.992,0,0,0,.917,1.092h5.962a1.062,1.062,0,0,0,1.009-1.092V14.784a.976.976,0,0,0-1.009-.993Z" transform="translate(262.656 46.59)" fill="#20262e" stroke="#20262e" stroke-width="0.4" class=""/>
                      <path id="Path_101713" data-name="Path 101713" d="M508.376,285.658a.94.94,0,1,1-.94-.94.94.94,0,0,1,.94.94" transform="translate(-188.906 -222.507)" fill="#20262e" stroke="#20262e" stroke-width="0.4" fill-rule="evenodd"/>
                      <g id="notifications_24px" transform="translate(293 46)">
                        <g id="Group_96359" data-name="Group 96359">
                          <rect id="Boundary" width="32" height="32" fill="none"/>
                        </g>
                      </g>
                    </g></svg>