<svg xmlns="http://www.w3.org/2000/svg" width="18.391" height="17" viewBox="0 0 18.391 17"><defs><style>.a{fill:#707070;}</style></defs><path class="a" d="M2.719-12.285c0,3.919,3.287,7.78,8.451,11.1a1.672,1.672,0,0,0,.739.282,1.63,1.63,0,0,0,.739-.282c5.164-3.316,8.461-7.177,8.461-11.1a5.287,5.287,0,0,0-5.271-5.621,4.623,4.623,0,0,0-3.929,2.042A4.621,4.621,0,0,0,7.98-17.906,5.279,5.279,0,0,0,2.719-12.285Zm1.614-.01A3.692,3.692,0,0,1,8.009-16.3a3.786,3.786,0,0,1,3.258,1.955c.253.37.418.486.642.486s.37-.126.642-.486A3.912,3.912,0,0,1,15.819-16.3a3.685,3.685,0,0,1,3.666,4.007c0,3.365-3.53,7.022-7.391,9.589a.476.476,0,0,1-.185.1.552.552,0,0,1-.185-.1C7.863-5.273,4.333-8.93,4.333-12.295Z" transform="translate(-2.719 17.906)"/></svg>